<svg width="48" height="48" viewBox="0 0 48 48" fill="none" xmlns="http://www.w3.org/2000/svg">
  <rect width="48" height="48" rx="12" fill="url(#gradient1)"/>
  <path d="M12 16C12 13.7909 13.7909 12 16 12H32C34.2091 12 36 13.7909 36 16V32C36 34.2091 34.2091 36 32 36H16C13.7909 36 12 34.2091 12 32V16Z" fill="url(#gradient2)"/>
  <path d="M16 20C16 18.8954 16.8954 18 18 18H30C31.1046 18 32 18.8954 32 20V28C32 29.1046 31.1046 30 30 30H18C16.8954 30 16 29.1046 16 28V20Z" fill="white"/>
  <circle cx="24" cy="24" r="2" fill="url(#gradient3)"/>
  <defs>
    <linearGradient id="gradient1" x1="0" y1="0" x2="48" y2="48" gradientUnits="userSpaceOnUse">
      <stop stop-color="#667eea"/>
      <stop offset="1" stop-color="#764ba2"/>
    </linearGradient>
    <linearGradient id="gradient2" x1="12" y1="12" x2="36" y2="36" gradientUnits="userSpaceOnUse">
      <stop stop-color="#f093fb"/>
      <stop offset="1" stop-color="#f5576c"/>
    </linearGradient>
    <linearGradient id="gradient3" x1="22" y1="22" x2="26" y2="26" gradientUnits="userSpaceOnUse">
      <stop stop-color="#4facfe"/>
      <stop offset="1" stop-color="#00f2fe"/>
    </linearGradient>
  </defs>
</svg>
